<?xml version="1.0" encoding="UTF-8"?>
<svg id="_レイヤー_2" data-name="レイヤー 2" xmlns="http://www.w3.org/2000/svg" viewBox="0 0 459.31 763.41">
  <defs>
    <style>
      .cls-1 {
        fill: #163041;
        stroke: #fff;
        stroke-miterlimit: 10;
        stroke-width: 20px;
      }
    </style>
  </defs>
  <g id="_レイヤー_1-2" data-name="レイヤー 1">
    <polygon class="cls-1" points="273.58 59.04 273.58 674.07 185.73 586.22 185.72 586.22 185.72 57.1 228.68 14.14 273.58 59.04"/>
    <polygon class="cls-1" points="185.72 57.1 185.72 181.35 132.3 234.77 97.86 269.21 44.44 322.63 10 357.07 10 232.82 95.91 146.91 97.86 144.96 166.55 76.27 183.78 59.04 185.72 57.1"/>
    <polygon class="cls-1" points="273.79 402.91 185.93 490.76 185.93 566.31 185.93 615.02 185.93 690.56 185.93 739.27 273.79 651.41 273.79 529.92 273.79 527.16 273.79 430.02 273.79 405.65 273.79 402.91"/>
    <polygon class="cls-1" points="449.31 234.77 449.31 359.02 412.92 322.63 361.45 271.16 325.06 234.77 273.58 183.3 273.58 59.04 290.81 76.27 361.45 146.91 449.31 234.77"/>
  </g>
</svg>