<?xml version="1.0" encoding="UTF-8"?>
<svg id="_レイヤー_2" data-name="レイヤー 2" xmlns="http://www.w3.org/2000/svg" xmlns:xlink="http://www.w3.org/1999/xlink" viewBox="0 0 2655.98 816.16">
  <defs>
    <style>
      .cls-1 {
        letter-spacing: -.06em;
      }

      .cls-2, .cls-3 {
        stroke-width: 0px;
      }

      .cls-2, .cls-4 {
        fill: none;
      }

      .cls-3, .cls-5 {
        fill: #fff;
      }

      .cls-6 {
        clip-path: url(#clippath);
      }

      .cls-5 {
        font-family: Raleway-Regular, Raleway;
        font-size: 402.41px;
      }

      .cls-4 {
        stroke: #fff;
        stroke-miterlimit: 10;
        stroke-width: 4px;
      }
    </style>
    <clipPath id="clippath">
      <rect class="cls-2" y="110" width="332.9" height="554.83"/>
    </clipPath>
  </defs>
  <g id="_レイヤー_2-2" data-name="レイヤー 2">
    <g class="cls-6">
      <polygon class="cls-3" points="354.84 419.71 306.92 467.63 279.12 495.44 278.88 495.67 278.73 495.82 250.84 523.71 222.63 551.58 222.63 827.92 166.51 888.47 166.51 664.13 166.72 663.92 166.87 663.77 166.56 663.77 166.51 663.72 166.51 608.04 166.72 607.84 166.89 607.67 166.54 607.67 166.51 607.63 166.51 551.96 166.92 551.55 166.51 551.55 166.51 495.88 250.84 411.55 278.73 383.66 278.88 383.5 354.84 307.54 354.84 419.71"/>
      <polygon class="cls-3" points="354.84 195.38 278.88 271.34 278.73 271.49 250.84 299.38 223.11 327.12 222.49 327.12 222.63 327.25 222.63 327.59 166.51 383.23 166.51 276.54 354.84 88.2 354.84 195.38"/>
      <polygon class="cls-3" points="166.49 439.35 166.48 439.35 166.49 439.36 166.49 495.45 110.63 439.59 110.4 439.35 110.38 833.96 54.27 777.85 54.27 495.95 54.55 495.67 54.75 495.47 54.34 495.47 54.27 495.4 54.27 439.86 54.55 439.59 54.78 439.35 54.31 439.35 54.27 439.31 54.27 383.78 54.55 383.5 54.8 383.25 54.29 383.25 -1.53 327.42 -1.26 327.15 -1.81 327.15 -1.84 327.12 -57.62 271.34 -57.31 271.03 -57.92 271.03 -57.94 271.01 -57.94 159.5 166.49 385.2 166.49 439.35"/>
    </g>
    <text class="cls-5" transform="translate(408.98 344.05)"><tspan x="0" y="0">TABLE</tspan><tspan x="0" y="382.36">F</tspan><tspan class="cls-1" x="237.01" y="382.36">U</tspan><tspan x="516.68" y="382.36">RNITURE</tspan></text>
    <line class="cls-4" x1="222.98" y1="453.2" x2="222.98" y2="312.2"/>
  </g>
</svg>