<?xml version="1.0" encoding="UTF-8"?>
<svg id="_レイヤー_2" data-name="レイヤー 2" xmlns="http://www.w3.org/2000/svg" viewBox="0 0 100 153.06">
  <defs>
    <style>
      .cls-1 {
        fill: #fff;
      }

      .cls-1, .cls-2 {
        stroke-width: 0px;
      }

      .cls-2 {
        fill: #163041;
      }
    </style>
  </defs>
  <g id="_レイヤー_1-2" data-name="レイヤー 1">
    <g>
      <path class="cls-2" d="m15,0h85v153.06H15c-8.28,0-15-6.72-15-15V15C0,6.72,6.72,0,15,0Z"/>
      <polygon class="cls-1" points="51.01 19.33 35.52 34.82 39.87 39.16 51.01 28.02 62.15 39.16 66.49 34.82 51.01 19.33"/>
      <g>
        <path class="cls-1" d="m57.69,75.07v-7.08h-18.33v-3.39h18.33v-7.11h2.97v17.58h-2.97Z"/>
        <path class="cls-1" d="m39.21,88.51c0-1.52.3-2.91.92-4.15.61-1.25,1.42-2.33,2.43-3.23s2.17-1.6,3.47-2.08c1.3-.49,2.63-.74,3.99-.74s2.78.26,4.08.78c1.3.52,2.45,1.23,3.45,2.15,1,.91,1.79,1.99,2.38,3.24.59,1.25.88,2.61.88,4.1s-.32,2.9-.95,4.15-1.46,2.32-2.47,3.21c-1.02.89-2.18,1.58-3.46,2.07-1.29.49-2.61.73-3.95.73-1.42,0-2.78-.25-4.08-.77-1.3-.51-2.44-1.23-3.44-2.15-.99-.92-1.78-2.01-2.37-3.25-.59-1.25-.88-2.61-.88-4.06Zm10.8-6.78c-1,0-1.97.16-2.91.48-.94.32-1.77.77-2.49,1.36-.72.59-1.29,1.31-1.73,2.15s-.65,1.78-.65,2.82.23,2.04.68,2.87c.45.83,1.04,1.53,1.78,2.11.74.58,1.57,1.02,2.49,1.32.92.3,1.86.45,2.82.45,1.02,0,2-.16,2.93-.48s1.75-.77,2.46-1.36c.71-.59,1.28-1.3,1.71-2.13.43-.83.64-1.76.64-2.78,0-1.08-.22-2.04-.67-2.88-.45-.84-1.03-1.55-1.75-2.13-.72-.58-1.54-1.03-2.47-1.33-.93-.31-1.88-.46-2.84-.46Z"/>
        <path class="cls-1" d="m39.36,104.98h21.3v8.94c0,.96-.2,1.85-.6,2.66-.4.81-.93,1.5-1.58,2.08-.65.58-1.39,1.04-2.22,1.36-.83.33-1.68.5-2.54.5s-1.77-.16-2.6-.46c-.83-.31-1.57-.75-2.22-1.31-.65-.56-1.17-1.23-1.56-2.02-.39-.79-.58-1.67-.58-2.62v-5.76h-7.41v-3.36Zm10.38,3.36v5.55c0,.48.1.92.3,1.31.2.39.48.72.84,1,.36.28.78.5,1.26.66.48.16,1.01.24,1.59.24s1.14-.09,1.62-.27c.48-.18.89-.43,1.25-.75.35-.32.62-.69.81-1.1.19-.41.29-.83.29-1.27v-5.37h-7.95Z"/>
      </g>
    </g>
  </g>
</svg>